<?xml version="1.0" encoding="UTF-8" ?>
<!DOCTYPE svg PUBLIC "-//W3C//DTD SVG 1.1//EN" "http://www.w3.org/Graphics/SVG/1.1/DTD/svg11.dtd">
<svg width="1507pt" height="714pt" viewBox="0 0 1507 714" version="1.1" xmlns="http://www.w3.org/2000/svg">
<g id="#800a0dff">
<path fill="#800a0d" opacity="1.00" d=" M 99.46 14.55 C 116.74 13.01 134.47 16.17 149.96 24.06 C 171.24 34.60 188.12 53.67 195.97 76.08 C 203.54 96.96 203.26 120.57 195.31 141.30 C 187.32 162.27 171.55 180.22 151.62 190.58 C 136.82 198.56 119.79 202.10 103.03 201.20 C 82.40 200.18 62.25 191.92 46.76 178.27 C 32.03 165.43 21.52 147.85 17.20 128.81 C 12.15 106.29 15.33 81.90 26.82 61.80 C 41.40 35.44 69.40 17.09 99.46 14.55 M 90.39 22.46 C 67.92 26.97 47.67 41.04 35.28 60.29 C 26.62 73.42 22.27 89.11 21.63 104.76 C 21.55 108.34 22.53 111.84 24.14 115.02 C 30.60 112.60 36.03 108.20 42.15 105.09 C 80.36 83.00 118.66 61.05 156.77 38.77 C 154.66 35.79 152.23 32.89 148.90 31.22 C 131.24 21.42 110.14 18.38 90.39 22.46 M 170.14 46.77 C 169.79 68.80 166.57 91.15 157.26 111.30 C 149.13 128.82 136.66 144.74 120.29 155.20 C 114.51 154.81 108.78 156.03 103.00 155.79 C 80.39 156.29 58.29 148.54 39.20 136.79 C 34.30 134.02 30.04 130.19 24.84 127.96 C 24.37 136.21 28.58 143.62 32.18 150.73 C 37.05 160.36 44.76 168.12 52.60 175.37 C 53.56 176.00 54.40 177.21 55.67 177.12 C 57.87 179.77 60.83 181.60 63.79 183.30 C 89.10 198.61 122.32 199.33 148.43 185.53 C 158.64 179.87 168.27 172.75 175.52 163.50 C 188.73 147.57 196.10 126.75 195.40 106.03 C 195.34 85.81 187.46 65.94 174.40 50.60 C 173.12 49.18 171.62 47.97 170.14 46.77 Z" />
</g>
<g id="#500a0dff">
<path fill="#500a0d" opacity="1.00" d=" M 90.39 22.46 C 110.14 18.38 131.24 21.42 148.90 31.22 C 152.23 32.89 154.66 35.79 156.77 38.77 C 118.66 61.05 80.36 83.00 42.15 105.09 C 36.03 108.20 30.60 112.60 24.14 115.02 C 22.53 111.84 21.55 108.34 21.63 104.76 C 22.27 89.11 26.62 73.42 35.28 60.29 C 47.67 41.04 67.92 26.97 90.39 22.46 Z" />
</g>
<g id="#c42330ff">
<path fill="#c42330" opacity="1.00" d=" M 170.14 46.77 C 171.62 47.97 173.12 49.18 174.40 50.60 C 187.46 65.94 195.34 85.81 195.40 106.03 C 196.10 126.75 188.73 147.57 175.52 163.50 C 168.27 172.75 158.64 179.87 148.43 185.53 C 122.32 199.33 89.10 198.61 63.79 183.30 C 60.83 181.60 57.87 179.77 55.67 177.12 C 78.27 173.94 101.26 168.33 120.29 155.20 C 136.66 144.74 149.13 128.82 157.26 111.30 C 166.57 91.15 169.79 68.80 170.14 46.77 Z" />
</g>
<g id="#bb090eff">
<path fill="#bb090e" opacity="1.00" d=" M 24.84 127.96 C 30.04 130.19 34.30 134.02 39.20 136.79 C 58.29 148.54 80.39 156.29 103.00 155.79 C 108.78 156.03 114.51 154.81 120.29 155.20 C 101.26 168.33 78.27 173.94 55.67 177.12 C 54.40 177.21 53.56 176.00 52.60 175.37 C 44.76 168.12 37.05 160.36 32.18 150.73 C 28.58 143.62 24.37 136.21 24.84 127.96 Z" />
</g>
<g id="#ffffffff">
<path fill="#ffffff" opacity="1.00" d=" M 71.12 232.29 C 84.40 232.61 97.87 231.34 110.98 234.11 C 119.85 235.94 128.24 241.16 132.91 249.06 C 138.55 258.28 139.26 269.46 139.27 280.00 C 139.18 388.66 139.39 497.32 139.17 605.97 C 125.78 605.94 112.19 606.94 98.99 604.15 C 89.80 602.30 81.28 596.59 76.75 588.29 C 71.77 579.42 70.94 568.97 70.99 559.00 C 71.09 450.10 70.84 341.19 71.12 232.29 Z" />
<path fill="#ffffff" opacity="1.00" d=" M 175.30 232.32 C 191.37 232.76 207.73 230.89 223.54 234.65 C 235.70 237.60 246.99 243.54 256.89 251.10 C 268.18 259.53 276.33 271.25 284.46 282.56 C 295.86 298.42 305.57 315.37 316.44 331.58 C 338.44 365.27 360.07 399.20 382.24 432.78 C 398.26 457.36 413.93 482.18 429.62 506.98 C 429.51 420.99 429.60 334.99 429.57 249.00 C 429.67 243.43 429.25 237.84 429.87 232.29 C 442.94 232.60 456.17 231.39 469.08 234.00 C 477.53 235.64 485.46 240.51 490.10 247.86 C 495.71 256.44 497.11 266.96 497.13 277.01 C 497.11 386.66 497.34 496.32 497.12 605.97 C 489.75 606.19 482.37 606.01 475.01 606.07 C 466.31 606.03 457.45 606.21 449.00 603.88 C 433.45 599.81 419.16 591.51 407.38 580.63 C 395.43 569.37 385.73 555.97 376.73 542.30 C 366.57 525.58 355.66 509.33 345.15 492.83 C 334.42 475.96 323.39 459.29 312.48 442.55 C 293.51 412.87 274.12 383.44 255.41 353.59 C 251.37 347.41 247.75 340.96 243.43 334.96 C 243.55 398.98 243.45 462.99 243.48 527.00 C 243.39 553.33 243.66 579.67 243.35 606.00 C 229.60 605.87 215.62 607.07 202.11 603.88 C 192.28 601.64 183.54 594.74 179.58 585.40 C 174.36 573.66 175.35 560.52 175.26 548.00 C 175.28 442.78 175.21 337.55 175.30 232.32 Z" />
<path fill="#ffffff" opacity="1.00" d=" M 638.56 247.50 C 661.49 237.00 686.85 232.43 711.99 232.32 C 741.31 232.30 770.64 232.34 799.96 232.30 C 800.14 243.83 799.16 256.41 791.92 265.92 C 786.72 272.98 778.37 277.05 769.90 278.64 C 759.06 280.72 747.96 279.68 737.00 279.93 C 723.99 280.20 710.78 278.94 697.98 281.93 C 680.70 285.74 665.25 295.46 652.46 307.46 C 631.59 327.10 620.66 355.10 616.83 383.04 C 613.52 403.92 613.30 425.24 615.44 446.25 C 617.69 466.85 622.37 487.51 632.06 505.97 C 639.54 520.35 650.23 533.17 663.59 542.42 C 673.98 549.74 685.93 554.75 698.38 557.30 C 711.38 560.05 724.74 560.28 737.98 560.14 C 753.01 559.92 768.46 557.98 781.97 550.96 C 790.73 546.44 797.66 537.86 798.94 527.93 C 800.57 515.35 799.93 502.64 800.07 490.00 C 799.96 475.42 800.27 460.83 799.92 446.25 C 785.22 445.81 769.77 448.04 755.84 442.14 C 746.95 438.52 740.21 430.58 737.54 421.43 C 735.45 414.07 734.83 406.36 734.84 398.74 C 779.30 398.55 823.76 398.55 868.22 398.74 C 868.45 434.82 868.24 470.91 868.32 507.00 C 868.48 524.36 865.80 542.16 857.68 557.68 C 850.56 571.34 838.60 582.02 825.05 589.09 C 809.49 597.19 792.18 601.20 774.91 603.59 C 753.06 606.43 730.93 606.51 708.94 605.41 C 677.35 603.63 646.09 594.52 619.03 578.00 C 590.44 560.92 567.18 535.27 552.66 505.33 C 536.23 472.17 530.55 434.22 534.33 397.53 C 537.86 362.70 550.53 328.64 571.65 300.62 C 588.87 277.51 612.29 259.25 638.56 247.50 Z" />
<path fill="#ffffff" opacity="1.00" d=" M 1071.49 232.68 C 1096.90 231.17 1122.74 233.81 1146.84 242.25 C 1176.29 252.68 1203.25 270.59 1223.40 294.58 C 1246.18 321.48 1260.95 354.95 1266.08 389.78 C 1271.09 424.67 1267.40 461.03 1253.79 493.66 C 1241.11 524.60 1220.19 552.37 1192.98 571.97 C 1167.04 590.72 1136.07 602.48 1104.15 605.21 C 1081.86 607.13 1059.19 605.92 1037.46 600.40 C 998.11 590.35 962.24 566.58 938.41 533.58 C 917.81 505.46 905.14 471.57 902.37 436.81 C 899.37 401.94 905.37 366.20 920.63 334.64 C 935.09 304.15 957.98 277.50 986.77 259.73 C 1012.14 243.72 1041.56 234.42 1071.49 232.68 M 1070.42 279.68 C 1037.90 284.52 1010.10 306.67 993.21 334.20 C 972.97 366.80 966.05 406.81 971.60 444.58 C 975.91 473.75 988.03 502.11 1007.93 524.05 C 1021.35 538.84 1038.48 550.52 1057.72 556.18 C 1079.57 562.77 1103.71 560.95 1124.45 551.50 C 1150.00 540.03 1169.96 518.35 1182.52 493.61 C 1201.12 456.85 1204.59 413.09 1193.58 373.53 C 1185.08 343.23 1167.36 314.80 1141.25 296.72 C 1120.89 282.41 1095.10 275.78 1070.42 279.68 Z" />
<path fill="#ffffff" opacity="1.00" d=" M 1265.13 234.02 C 1274.25 231.79 1283.70 232.38 1293.00 232.32 C 1359.05 232.30 1425.09 232.35 1491.14 232.29 C 1491.70 239.83 1490.73 247.46 1488.86 254.76 C 1486.67 262.50 1482.02 269.84 1474.94 273.93 C 1466.26 279.08 1455.88 280.07 1445.99 280.07 C 1430.27 280.10 1414.56 280.00 1398.84 280.10 C 1398.45 388.73 1398.80 497.36 1398.31 605.99 C 1385.16 605.90 1371.83 606.94 1358.86 604.28 C 1349.85 602.58 1341.37 597.30 1336.62 589.35 C 1331.82 581.50 1330.46 572.12 1330.29 563.06 C 1330.15 468.74 1330.42 374.42 1330.16 280.10 C 1299.04 279.95 1267.92 280.22 1236.81 279.97 C 1236.86 269.01 1237.58 257.24 1243.87 247.85 C 1248.62 240.49 1256.73 235.92 1265.13 234.02 Z" />
<path fill="#ffffff" opacity="1.00" d=" M 839.42 640.23 C 845.76 638.37 852.37 637.64 858.95 637.23 C 864.43 636.99 870.35 636.84 875.20 639.82 C 880.53 642.88 883.15 649.74 881.44 655.61 C 880.68 657.89 879.29 659.89 878.05 661.94 C 881.69 663.75 885.64 665.48 888.10 668.89 C 893.15 675.74 892.29 686.26 886.31 692.30 C 880.90 698.01 872.65 699.91 865.03 699.45 C 858.12 699.22 850.69 697.46 845.93 692.08 C 840.31 685.87 839.31 677.05 839.41 669.02 C 839.45 659.42 839.40 649.83 839.42 640.23 M 851.64 646.55 C 850.43 650.83 851.36 655.49 851.15 659.93 C 856.40 659.89 861.85 660.64 866.95 659.03 C 871.80 657.51 872.53 650.29 868.73 647.31 C 863.79 643.85 857.03 644.61 851.64 646.55 M 851.66 668.01 C 851.38 673.45 851.26 679.24 853.80 684.22 C 855.50 687.63 859.24 689.46 862.92 689.73 C 866.99 690.04 871.53 690.40 875.19 688.21 C 879.29 685.44 879.56 679.73 878.55 675.35 C 877.52 671.08 873.28 668.34 869.06 668.09 C 863.27 667.66 857.46 667.99 851.66 668.01 Z" />
<path fill="#ffffff" opacity="1.00" d=" M 923.24 640.17 C 930.96 637.94 939.04 637.10 947.06 637.14 C 953.29 637.21 959.85 638.22 965.04 641.91 C 972.04 646.72 974.23 657.38 969.43 664.44 C 967.13 667.98 963.46 670.23 959.91 672.34 C 962.80 675.05 965.82 677.78 967.59 681.41 C 970.56 687.37 973.89 693.16 976.45 699.31 C 971.75 699.30 965.74 700.81 962.27 696.71 C 957.99 690.90 956.29 683.63 952.33 677.66 C 947.70 673.42 940.74 674.96 935.02 674.84 C 934.79 683.02 935.03 691.20 934.92 699.39 C 931.86 699.39 928.47 699.96 925.74 698.26 C 923.13 696.42 923.23 692.90 923.17 690.06 C 923.26 673.43 923.11 656.80 923.24 640.17 M 934.97 645.98 C 934.91 652.69 934.84 659.40 935.02 666.11 C 940.61 666.12 946.29 666.70 951.81 665.59 C 960.47 663.29 960.18 648.74 951.99 645.90 C 946.53 643.83 940.48 644.54 934.97 645.98 Z" />
<path fill="#ffffff" opacity="1.00" d=" M 1034.39 637.58 C 1044.73 635.78 1056.05 638.96 1063.20 646.82 C 1073.94 658.06 1074.36 677.38 1063.94 688.97 C 1053.10 701.88 1031.60 703.04 1019.14 691.85 C 1008.24 682.40 1005.49 665.15 1012.75 652.72 C 1017.13 644.69 1025.37 638.97 1034.39 637.58 M 1036.38 645.54 C 1029.08 647.61 1024.56 654.93 1023.29 662.05 C 1021.97 669.64 1021.60 678.21 1026.10 684.88 C 1030.93 692.42 1042.52 694.08 1049.36 688.36 C 1055.37 683.49 1057.44 675.45 1057.76 668.03 C 1058.16 662.01 1056.96 655.66 1053.23 650.80 C 1049.41 645.77 1042.35 643.87 1036.38 645.54 Z" />
<path fill="#ffffff" opacity="1.00" d=" M 1103.69 637.04 C 1107.50 637.15 1113.21 636.57 1114.64 641.20 C 1115.74 647.12 1114.87 653.21 1115.33 659.20 C 1122.41 654.07 1128.52 647.74 1135.37 642.33 C 1140.20 638.52 1147.15 638.22 1152.53 641.04 C 1144.18 649.51 1134.63 656.69 1126.06 664.92 C 1135.63 675.76 1145.93 685.95 1155.30 696.94 C 1151.13 700.05 1144.91 700.55 1140.71 697.27 C 1136.01 693.64 1132.72 688.61 1128.68 684.34 C 1124.18 679.53 1120.20 674.23 1115.36 669.76 C 1115.05 679.64 1115.45 689.52 1115.18 699.41 C 1111.89 699.36 1107.97 700.10 1105.32 697.68 C 1103.13 695.37 1103.61 691.90 1103.48 688.99 C 1103.68 671.68 1103.25 654.35 1103.69 637.04 Z" />
<path fill="#ffffff" opacity="1.00" d=" M 1187.19 645.12 C 1187.07 640.29 1191.64 637.11 1196.15 637.25 C 1207.14 637.00 1218.16 637.12 1229.16 637.19 C 1228.77 639.25 1228.93 641.70 1227.30 643.28 C 1225.43 645.24 1222.51 645.20 1220.02 645.28 C 1212.99 645.31 1205.96 645.18 1198.93 645.27 C 1198.58 650.82 1198.68 656.39 1198.83 661.95 C 1207.28 662.14 1215.74 661.82 1224.19 662.10 C 1223.96 665.11 1223.17 668.91 1219.70 669.66 C 1212.82 670.73 1205.80 669.81 1198.87 670.16 C 1198.74 675.42 1198.44 680.71 1198.97 685.97 C 1199.45 689.73 1203.94 690.60 1207.05 691.07 C 1215.03 691.76 1223.07 691.17 1231.09 691.36 C 1231.05 693.90 1230.90 697.01 1228.40 698.42 C 1225.18 699.99 1221.45 699.36 1218.00 699.52 C 1209.67 699.33 1200.69 700.02 1193.17 695.79 C 1188.67 693.29 1186.84 687.97 1187.06 683.06 C 1187.15 670.41 1186.88 657.76 1187.19 645.12 Z" />
<path fill="#ffffff" opacity="1.00" d=" M 1263.19 640.16 C 1271.57 637.80 1280.34 636.92 1289.04 637.20 C 1295.07 637.48 1301.42 638.82 1306.14 642.81 C 1312.46 648.05 1313.98 658.38 1309.01 665.01 C 1306.70 668.24 1303.25 670.33 1299.91 672.31 C 1302.72 675.11 1305.82 677.76 1307.57 681.42 C 1310.54 687.37 1313.89 693.15 1316.42 699.32 C 1311.71 699.31 1305.74 700.80 1302.25 696.72 C 1297.94 690.93 1296.26 683.65 1292.31 677.67 C 1287.67 673.41 1280.68 674.97 1274.94 674.84 C 1274.74 683.01 1274.95 691.18 1274.86 699.35 C 1271.81 699.41 1268.45 699.95 1265.73 698.27 C 1263.10 696.45 1263.17 692.90 1263.11 690.06 C 1263.20 673.42 1263.03 656.79 1263.19 640.16 M 1274.91 645.98 C 1274.84 652.69 1274.79 659.40 1274.94 666.11 C 1280.55 666.11 1286.26 666.71 1291.82 665.58 C 1300.36 663.21 1300.15 648.77 1291.99 645.91 C 1286.51 643.81 1280.45 644.56 1274.91 645.98 Z" />
<path fill="#ffffff" opacity="1.00" d=" M 1357.30 641.25 C 1366.61 635.45 1378.34 636.74 1388.49 639.36 C 1390.73 640.17 1393.56 640.31 1395.24 642.16 C 1395.33 644.61 1393.76 647.49 1391.00 647.35 C 1385.91 647.34 1381.13 645.21 1376.08 644.96 C 1371.84 644.73 1367.07 644.75 1363.60 647.52 C 1360.90 649.58 1361.06 654.22 1364.07 655.94 C 1373.48 661.84 1386.05 661.68 1394.12 669.90 C 1401.65 677.15 1398.59 691.06 1389.41 695.47 C 1376.72 701.92 1361.40 699.89 1348.57 694.87 C 1348.82 691.93 1350.44 688.45 1354.01 689.14 C 1362.41 690.33 1371.48 694.01 1379.66 689.75 C 1384.24 687.86 1386.98 681.47 1383.56 677.39 C 1378.77 672.66 1371.88 671.24 1365.74 669.10 C 1360.10 667.20 1353.89 664.59 1351.05 659.01 C 1348.69 652.61 1351.35 644.71 1357.30 641.25 Z" />
</g>
</svg>
